<svg xmlns="http://www.w3.org/2000/svg" viewBox="0 0 32 32" width="64" height="64">
  <defs>
    <linearGradient id="bgGradient" x1="0%" y1="0%" x2="100%" y2="100%">
      <stop offset="0%" style="stop-color:#4facfe;stop-opacity:1" />
      <stop offset="100%" style="stop-color:#00f2fe;stop-opacity:1" />
    </linearGradient>
  </defs>
  <rect width="32" height="32" rx="6" fill="url(#bgGradient)"/>
  <path d="M 8 10 L 8 24 L 16 22 L 24 24 L 24 10 L 16 12 Z" fill="#ffffff" opacity="0.9"/>
  <line x1="16" y1="12" x2="16" y2="22" stroke="#4facfe" stroke-width="0.5"/>
  <rect x="15" y="14" width="2" height="5" fill="#667eea"/>
  <rect x="13.5" y="15.5" width="5" height="2" fill="#667eea"/>
  <circle cx="10" cy="8" r="1.5" fill="#ffd700" opacity="0.8"/>
  <path d="M 23 8 C 23 7 22 6.5 21.5 7 C 21 7.5 21 7.5 20.5 7 C 20 6.5 19 7 19 8 C 19 9 21 10 21 10 C 21 10 23 9 23 8 Z" fill="#ff6b6b" opacity="0.8"/>
</svg>